<?xml version="1.0" encoding="UTF-8" standalone="no" ?>
<!DOCTYPE svg PUBLIC "-//W3C//DTD SVG 1.1//EN" "http://www.w3.org/Graphics/SVG/1.1/DTD/svg11.dtd">
<svg xmlns="http://www.w3.org/2000/svg" xmlns:xlink="http://www.w3.org/1999/xlink" version="1.1" width="1080" height="1080" viewBox="0 0 1080 1080" xml:space="preserve">
<desc>Created with Fabric.js 5.2.4</desc>
<defs>
</defs>
<rect x="0" y="0" width="100%" height="100%" fill="transparent"></rect>
<g transform="matrix(1 0 0 1 540 540)" id="28093103-91a7-4bcc-9fc8-cf426e7adcad"  >
<rect style="stroke: none; stroke-width: 1; stroke-dasharray: none; stroke-linecap: butt; stroke-dashoffset: 0; stroke-linejoin: miter; stroke-miterlimit: 4; fill: rgb(255,255,255); fill-rule: nonzero; opacity: 1; visibility: hidden;" vector-effect="non-scaling-stroke"  x="-540" y="-540" rx="0" ry="0" width="1080" height="1080" />
</g>
<g transform="matrix(1 0 0 1 540 540)" id="8442acde-4bf4-4b4f-afe5-efc6f8d415f1"  >
</g>
<g transform="matrix(1.6 0 0 0.96 680.59 508.87)"  >
<g style="" vector-effect="non-scaling-stroke"   >
		<g transform="matrix(1 0 0 1 0 0)"  >
<rect style="stroke: none; stroke-width: 1; stroke-dasharray: none; stroke-linecap: butt; stroke-dashoffset: 0; stroke-linejoin: miter; stroke-miterlimit: 4; fill: rgb(255,255,255); fill-rule: nonzero; opacity: 1;" vector-effect="non-scaling-stroke"  x="-1000" y="-750" rx="0" ry="0" width="2000" height="1500" />
</g>
		<g transform="matrix(6.13 0 0 6.13 -0.85 -115.22)" id="text-0"  >
<path style="stroke: none; stroke-width: 1; stroke-dasharray: none; stroke-linecap: butt; stroke-dashoffset: 0; stroke-linejoin: miter; stroke-miterlimit: 4; fill: rgb(45,48,53); fill-rule: nonzero; opacity: 1;" vector-effect="non-scaling-stroke"  transform=" translate(-75.47, 14.26)" d="M 25.68 -35.16 L 32.52 -35.16 L 21.14 -14.77 L 21.14 0 L 11.45 0 L 11.45 -14.23 L -0.05 -35.16 L 9.84 -35.16 L 17.48 -17.48 L 25.68 -35.16 Z M 67.92 -16.82 L 67.92 -16.82 L 67.92 -16.36 Q 67.87 -14.31 67.49 -12.11 Q 67.11 -9.91 66.43 -7.71 Q 65.74 -5.52 64.79 -3.37 Q 63.84 -1.22 62.66 0.74 Q 61.47 2.71 60.1 4.43 Q 58.74 6.15 57.22 7.47 L 57.22 7.47 L 53.59 5.37 Q 54.44 3.93 55.14 2.23 Q 55.83 0.54 56.39 -1.32 Q 56.96 -3.17 57.36 -5.13 Q 57.76 -7.08 58.03 -9.01 Q 58.3 -10.94 58.43 -12.81 Q 58.57 -14.67 58.57 -16.36 L 58.57 -16.36 Q 58.57 -17.68 58.55 -19.35 Q 58.54 -21.02 58.36 -22.75 Q 58.18 -24.49 57.76 -26.14 Q 57.35 -27.78 56.53 -29.08 Q 55.71 -30.37 54.43 -31.15 Q 53.15 -31.93 51.24 -31.93 L 51.24 -31.93 Q 49.56 -31.93 48.35 -31.36 Q 47.14 -30.79 46.3 -29.82 Q 45.46 -28.86 44.96 -27.59 Q 44.46 -26.32 44.17 -24.91 Q 43.89 -23.51 43.81 -22.08 Q 43.72 -20.65 43.72 -19.38 L 43.72 -19.38 L 43.72 -12.57 L 54.25 -12.57 L 54.25 -8.54 L 43.72 -8.54 L 43.72 0 L 34.03 0 L 34.03 -17.87 Q 34.03 -21.7 35.25 -25 Q 36.47 -28.3 38.71 -30.73 Q 40.94 -33.15 44.08 -34.53 Q 47.21 -35.91 51.07 -35.91 L 51.07 -35.91 Q 53.68 -35.91 55.97 -35.17 Q 58.25 -34.42 60.13 -33.12 Q 62.01 -31.81 63.49 -30.02 Q 64.96 -28.22 65.95 -26.1 Q 66.94 -23.97 67.45 -21.61 Q 67.97 -19.24 67.92 -16.82 Z M 78.71 -24.12 L 78.71 0 L 74.21 0 L 74.21 -35.16 L 80.51 -35.16 L 101.87 -11.01 L 101.87 -35.16 L 106.34 -35.16 L 106.34 0 L 100.04 0 L 78.71 -24.12 Z M 150.99 -17.63 L 150.99 -17.63 Q 150.99 -13.38 149.53 -9.97 Q 148.06 -6.57 145.48 -4.2 Q 142.89 -1.83 139.35 -0.56 Q 135.81 0.71 131.68 0.71 L 131.68 0.71 Q 127.56 0.71 124.02 -0.56 Q 120.48 -1.83 117.89 -4.2 Q 115.3 -6.57 113.84 -9.97 Q 112.37 -13.38 112.37 -17.63 L 112.37 -17.63 Q 112.37 -21.95 113.82 -25.35 Q 115.28 -28.76 117.85 -31.12 Q 120.43 -33.47 123.97 -34.73 Q 127.51 -35.99 131.68 -35.99 L 131.68 -35.99 Q 135.86 -35.99 139.4 -34.73 Q 142.94 -33.47 145.51 -31.12 Q 148.09 -28.76 149.54 -25.35 Q 150.99 -21.95 150.99 -17.63 Z M 141.13 -17.63 L 141.13 -17.63 Q 141.13 -19.24 140.98 -20.92 Q 140.84 -22.61 140.45 -24.19 Q 140.06 -25.78 139.38 -27.17 Q 138.71 -28.56 137.66 -29.6 Q 136.61 -30.64 135.14 -31.24 Q 133.66 -31.84 131.68 -31.84 L 131.68 -31.84 Q 129.68 -31.84 128.19 -31.24 Q 126.7 -30.64 125.65 -29.61 Q 124.6 -28.59 123.94 -27.2 Q 123.28 -25.81 122.91 -24.23 Q 122.53 -22.66 122.38 -20.96 Q 122.23 -19.26 122.23 -17.63 L 122.23 -17.63 Q 122.23 -16.02 122.38 -14.33 Q 122.53 -12.65 122.92 -11.07 Q 123.31 -9.5 123.98 -8.11 Q 124.65 -6.71 125.7 -5.68 Q 126.75 -4.64 128.23 -4.03 Q 129.7 -3.42 131.68 -3.42 L 131.68 -3.42 Q 133.61 -3.42 135.05 -4.04 Q 136.49 -4.66 137.54 -5.73 Q 138.59 -6.79 139.29 -8.19 Q 139.98 -9.59 140.39 -11.17 Q 140.79 -12.74 140.96 -14.4 Q 141.13 -16.06 141.13 -17.63 Z" stroke-linecap="round" />
</g>
		<g transform="matrix(4.39 0 0 4.39 -0.91 163.05)" id="text-1"  >
<path style="stroke: none; stroke-width: 1; stroke-dasharray: none; stroke-linecap: butt; stroke-dashoffset: 0; stroke-linejoin: miter; stroke-miterlimit: 4; fill: rgb(78,81,86); fill-rule: nonzero; opacity: 1;" vector-effect="non-scaling-stroke"  transform=" translate(-106.56, 18.12)" d="M 25.56 -33.54 L 25.56 -25.61 L 22.61 -25.61 L 21.9 -30.2 Q 21.83 -30.57 21.61 -30.83 Q 21.39 -31.1 21.04 -31.1 L 21.04 -31.1 L 10.4 -31.1 L 10.4 -18.09 L 18.04 -18.09 Q 18.38 -18.09 18.65 -18.42 Q 18.92 -18.75 18.95 -18.99 L 18.95 -18.99 L 19.41 -22.51 L 21.9 -22.51 L 21.9 -11.25 L 19.41 -11.25 L 18.95 -14.75 Q 18.92 -15.01 18.64 -15.33 Q 18.36 -15.65 18.04 -15.65 L 18.04 -15.65 L 10.4 -15.65 L 10.4 -3.44 Q 10.4 -3.08 10.66 -2.73 Q 10.91 -2.39 11.45 -2.34 L 11.45 -2.34 L 14.79 -2.15 L 14.79 0 L 1.66 0 L 1.66 -2.15 L 4.3 -2.34 Q 4.83 -2.39 5.09 -2.73 Q 5.35 -3.08 5.35 -3.44 L 5.35 -3.44 L 5.35 -30.1 Q 5.35 -30.47 5.09 -30.82 Q 4.83 -31.18 4.3 -31.2 L 4.3 -31.2 L 1.25 -31.4 L 1.25 -33.54 L 25.56 -33.54 Z M 47.95 -23.95 L 47.95 -18.99 L 46 -18.99 Q 45.53 -19.56 44.88 -19.96 Q 44.24 -20.36 43.31 -20.36 L 43.31 -20.36 Q 42.11 -20.36 40.86 -19.53 Q 39.6 -18.7 38.3 -17.26 L 38.3 -17.26 L 38.3 -3.2 Q 38.3 -2.15 39.35 -2.1 L 39.35 -2.1 L 42.65 -1.95 L 42.65 0 L 30.15 0 L 30.15 -1.9 L 32.62 -2.1 Q 33.06 -2.15 33.36 -2.44 Q 33.67 -2.73 33.67 -3.2 L 33.67 -3.2 L 33.67 -20.56 L 30.05 -20.56 L 30.05 -22.19 L 36.25 -24.1 L 38.3 -24.1 L 38.3 -19.65 Q 39.04 -20.46 40.14 -21.66 Q 41.23 -22.85 42.48 -23.78 Q 43.72 -24.71 44.9 -24.71 L 44.9 -24.71 Q 45.68 -24.71 46.58 -24.46 Q 47.48 -24.22 47.95 -23.95 L 47.95 -23.95 Z M 75.8 -12.01 L 75.8 -12.01 Q 75.8 -8.47 74.34 -5.6 Q 72.87 -2.73 70.2 -1.06 Q 67.53 0.61 63.87 0.61 L 63.87 0.61 Q 60.23 0.61 57.57 -1.05 Q 54.91 -2.71 53.46 -5.57 Q 52.02 -8.42 52.02 -12.01 L 52.02 -12.01 Q 52.02 -15.58 53.48 -18.46 Q 54.93 -21.34 57.63 -23.02 Q 60.33 -24.71 64.01 -24.71 L 64.01 -24.71 Q 67.75 -24.71 70.38 -23 Q 73.02 -21.29 74.41 -18.41 Q 75.8 -15.53 75.8 -12.01 Z M 70.6 -12.06 L 70.6 -12.06 Q 70.6 -14.79 69.88 -17.16 Q 69.16 -19.53 67.69 -21 Q 66.21 -22.46 63.96 -22.46 L 63.96 -22.46 Q 61.64 -22.46 60.17 -21 Q 58.69 -19.53 57.98 -17.16 Q 57.27 -14.79 57.27 -12.06 L 57.27 -12.06 Q 57.27 -9.35 57.99 -6.97 Q 58.71 -4.59 60.19 -3.13 Q 61.67 -1.66 63.91 -1.66 L 63.91 -1.66 Q 66.21 -1.66 67.69 -3.13 Q 69.16 -4.59 69.88 -6.96 Q 70.6 -9.33 70.6 -12.06 Z M 106.71 -1.95 L 106.71 0 L 95.68 0 L 95.68 -1.95 L 97.78 -2.1 Q 98.22 -2.15 98.52 -2.44 Q 98.83 -2.73 98.83 -3.2 L 98.83 -3.2 L 98.83 -16.21 Q 98.83 -18.58 97.73 -19.81 Q 96.63 -21.04 94.02 -21.04 L 94.02 -21.04 Q 92.6 -21.04 91.2 -20.64 Q 89.79 -20.24 88.52 -19.6 L 88.52 -19.6 L 88.52 -3.2 Q 88.52 -2.17 89.57 -2.1 L 89.57 -2.1 L 91.67 -1.95 L 91.67 0 L 80.37 0 L 80.37 -1.95 L 82.81 -2.1 Q 83.86 -2.17 83.86 -3.2 L 83.86 -3.2 L 83.86 -20.56 L 80.37 -20.56 L 80.37 -22.19 L 86.47 -24.1 L 88.52 -24.1 L 88.52 -21.61 Q 90.62 -22.8 92.83 -23.75 Q 95.04 -24.71 96.77 -24.71 L 96.77 -24.71 Q 100.05 -24.71 101.76 -22.67 Q 103.46 -20.63 103.46 -16.99 L 103.46 -16.99 L 103.46 -3.2 Q 103.46 -2.73 103.77 -2.44 Q 104.07 -2.15 104.51 -2.1 L 104.51 -2.1 L 106.71 -1.95 Z M 126.22 -3.05 L 126.22 -3.05 L 126.22 -1.05 Q 126.22 -1.05 125.28 -0.63 Q 124.34 -0.22 122.81 0.2 Q 121.29 0.61 119.48 0.61 L 119.48 0.61 Q 116.67 0.61 115.39 -0.72 Q 114.11 -2.05 114.11 -5 L 114.11 -5 L 114.11 -21.61 L 110.91 -21.61 L 110.91 -23.24 L 114.33 -24.85 L 116.57 -30.15 L 118.77 -30.15 L 118.77 -24.1 L 125.83 -24.1 L 125.83 -21.61 L 118.77 -21.61 L 118.77 -7.64 Q 118.77 -4.66 119.77 -3.43 Q 120.77 -2.2 122.77 -2.2 L 122.77 -2.2 Q 124.24 -2.2 125.23 -2.62 Q 126.22 -3.05 126.22 -3.05 Z M 151.22 -5.54 L 151.22 -2.49 Q 149.12 -1.2 146.69 -0.29 Q 144.26 0.61 141.72 0.61 L 141.72 0.61 Q 138.69 0.61 136.04 -0.74 Q 133.39 -2.1 131.76 -4.86 Q 130.12 -7.62 130.12 -11.79 L 130.12 -11.79 Q 130.12 -15.7 131.64 -18.6 Q 133.15 -21.51 135.81 -23.11 Q 138.47 -24.71 141.87 -24.71 L 141.87 -24.71 Q 146.53 -24.71 148.87 -21.81 Q 151.22 -18.92 151.22 -14.45 L 151.22 -14.45 Q 151.22 -14.21 151.22 -13.81 Q 151.22 -13.4 151.17 -13.06 L 151.17 -13.06 L 134.96 -13.06 Q 134.96 -11.16 135.36 -9.27 Q 135.76 -7.37 136.71 -5.83 Q 137.67 -4.3 139.28 -3.37 Q 140.89 -2.44 143.31 -2.44 L 143.31 -2.44 Q 145.45 -2.44 147.49 -3.43 Q 149.53 -4.42 151.22 -5.54 L 151.22 -5.54 Z M 135.22 -15.31 L 146.21 -15.31 L 146.21 -16.41 Q 146.21 -18.87 145.03 -20.56 Q 143.84 -22.24 141.35 -22.24 L 141.35 -22.24 Q 138.89 -22.24 137.15 -20.39 Q 135.42 -18.53 135.22 -15.31 L 135.22 -15.31 Z M 182.12 -1.95 L 182.12 0 L 171.09 0 L 171.09 -1.95 L 173.19 -2.1 Q 173.63 -2.15 173.93 -2.44 Q 174.24 -2.73 174.24 -3.2 L 174.24 -3.2 L 174.24 -16.21 Q 174.24 -18.58 173.14 -19.81 Q 172.04 -21.04 169.43 -21.04 L 169.43 -21.04 Q 168.01 -21.04 166.61 -20.64 Q 165.2 -20.24 163.93 -19.6 L 163.93 -19.6 L 163.93 -3.2 Q 163.93 -2.17 164.98 -2.1 L 164.98 -2.1 L 167.08 -1.95 L 167.08 0 L 155.78 0 L 155.78 -1.95 L 158.22 -2.1 Q 159.27 -2.17 159.27 -3.2 L 159.27 -3.2 L 159.27 -20.56 L 155.78 -20.56 L 155.78 -22.19 L 161.88 -24.1 L 163.93 -24.1 L 163.93 -21.61 Q 166.03 -22.8 168.24 -23.75 Q 170.45 -24.71 172.19 -24.71 L 172.19 -24.71 Q 175.46 -24.71 177.17 -22.67 Q 178.88 -20.63 178.88 -16.99 L 178.88 -16.99 L 178.88 -3.2 Q 178.88 -2.73 179.18 -2.44 Q 179.49 -2.15 179.93 -2.1 L 179.93 -2.1 L 182.12 -1.95 Z M 211.88 -1.95 L 211.88 0 L 204.02 0 L 204.02 -2.66 Q 202.31 -1.34 200.38 -0.37 Q 198.46 0.61 196.28 0.61 L 196.28 0.61 Q 193.77 0.61 191.95 -0.45 Q 190.13 -1.51 188.97 -3.27 Q 187.81 -5.03 187.25 -7.15 Q 186.69 -9.28 186.69 -11.4 L 186.69 -11.4 Q 186.69 -14.79 188.08 -17.83 Q 189.47 -20.87 192.3 -22.79 Q 195.14 -24.71 199.43 -24.71 L 199.43 -24.71 Q 200.63 -24.71 202.03 -24.48 Q 203.44 -24.24 204.02 -24.1 L 204.02 -24.1 L 204.02 -33.25 L 200.24 -33.25 L 200.24 -34.91 L 206.68 -36.84 L 208.69 -36.84 L 208.69 -3.2 Q 208.69 -2.17 209.73 -2.1 L 209.73 -2.1 L 211.88 -1.95 Z M 204.02 -4.54 L 204.02 -4.54 L 204.02 -21.56 Q 203.39 -21.78 202.13 -22.03 Q 200.87 -22.29 199.77 -22.29 L 199.77 -22.29 Q 196.06 -22.29 193.84 -19.54 Q 191.62 -16.8 191.62 -12.26 L 191.62 -12.26 Q 191.62 -8.18 193.52 -5.49 Q 195.43 -2.81 198.87 -2.81 L 198.87 -2.81 Q 200.38 -2.81 201.71 -3.38 Q 203.05 -3.96 204.02 -4.54 Z" stroke-linecap="round" />
</g>
		<g transform="matrix(3.79 0 0 3.79 -327.54 -1.51)"  >
<path style="stroke: rgb(255,255,255); stroke-opacity: 0; stroke-width: 1; stroke-dasharray: none; stroke-linecap: butt; stroke-dashoffset: 0; stroke-linejoin: miter; stroke-miterlimit: 4; fill: rgb(45,48,53); fill-rule: nonzero; opacity: 1;" vector-effect="non-scaling-stroke"  transform=" translate(-111.49, -123.6)" d="M 0 123.6 C 0 55.337999999999994 55.338 0 123.6 0 C 164.33599999999998 0 200.47 19.707 222.987 50.107 L 219.012 50.107 C 196.99 21.56 162.44299999999998 3.1709999999999994 123.6 3.1709999999999994 C 57.089 3.1709999999999994 3.1709999999999923 57.089 3.1709999999999923 123.6 C 3.1709999999999923 190.111 57.08899999999999 244.029 123.6 244.029 C 162.44299999999998 244.029 196.99 225.64 219.012 197.093 L 222.987 197.093 C 200.47 227.493 164.33599999999998 247.2 123.6 247.2 C 55.337999999999994 247.2 0 191.862 0 123.6 z" stroke-linecap="round" />
</g>
		<g transform="matrix(3.79 0 0 3.79 -0.91 -1.51)"  >
<rect style="stroke: none; stroke-width: 1; stroke-dasharray: none; stroke-linecap: butt; stroke-dashoffset: 0; stroke-linejoin: miter; stroke-miterlimit: 4; fill: none; fill-rule: nonzero; opacity: 1;" vector-effect="non-scaling-stroke"  x="-197.76" y="-123.6" rx="0" ry="0" width="395.52" height="247.2" />
</g>
</g>
</g>
</svg>