<svg xmlns="http://www.w3.org/2000/svg" version="1.1" xmlns:xlink="http://www.w3.org/1999/xlink" xmlns:svgjs="http://svgjs.dev/svgjs" width="2000" height="1500" viewBox="0 0 2000 1500"><rect width="2000" height="1500" fill="#ffffff"></rect><g transform="matrix(0.75,0,0,0.75,249.090909090909,278.98548387096776)"><svg viewBox="0 0 396 248" data-background-color="#ffffff" preserveAspectRatio="xMidYMid meet" height="1252" width="2000" xmlns="http://www.w3.org/2000/svg" xmlns:xlink="http://www.w3.org/1999/xlink"><g id="tight-bounds" transform="matrix(1,0,0,1,0.2400000000000091,0.4000000000000057)"><svg viewBox="0 0 395.52 247.2" height="247.2" width="395.52"><g><svg></svg></g><g><svg viewBox="0 0 395.52 247.2" height="247.2" width="395.52"><g transform="matrix(1,0,0,1,75.54432,58.40799366109739)"><svg viewBox="0 0 244.43135999999998 130.3840126778052" height="130.3840126778052" width="244.43135999999998"><g><svg viewBox="0 0 244.43135999999998 130.3840126778052" height="130.3840126778052" width="244.43135999999998"><g><svg viewBox="0 0 244.43135999999998 130.3840126778052" height="130.3840126778052" width="244.43135999999998"><g><svg viewBox="0 0 244.43135999999998 130.3840126778052" height="130.3840126778052" width="244.43135999999998"><g id="textblocktransform"><svg viewBox="0 0 244.43135999999998 130.3840126778052" height="130.3840126778052" width="244.43135999999998" id="textblock"><g><svg viewBox="0 0 244.43135999999998 70.32290622272507" height="70.32290622272507" width="244.43135999999998"><g transform="matrix(1,0,0,1,0,0)"><svg width="244.43135999999998" viewBox="-0.05 -35.99 151.04000000000002 43.46" height="70.32290622272507" data-palette-color="#2d3035"><path d="M25.68-35.16L32.52-35.16 21.14-14.77 21.14 0 11.45 0 11.45-14.23-0.05-35.16 9.84-35.16 17.48-17.48 25.68-35.16ZM67.92-16.82L67.92-16.82 67.92-16.36Q67.87-14.31 67.49-12.11 67.11-9.91 66.43-7.71 65.74-5.52 64.79-3.37 63.84-1.22 62.66 0.74 61.47 2.71 60.1 4.43 58.74 6.15 57.22 7.47L57.22 7.47 53.59 5.37Q54.44 3.93 55.14 2.23 55.83 0.54 56.39-1.32 56.96-3.17 57.36-5.13 57.76-7.08 58.03-9.01 58.3-10.94 58.43-12.81 58.57-14.67 58.57-16.36L58.57-16.36Q58.57-17.68 58.55-19.35 58.54-21.02 58.36-22.75 58.18-24.49 57.76-26.14 57.35-27.78 56.53-29.08 55.71-30.37 54.43-31.15 53.15-31.93 51.24-31.93L51.24-31.93Q49.56-31.93 48.35-31.36 47.14-30.79 46.3-29.82 45.46-28.86 44.96-27.59 44.46-26.32 44.17-24.91 43.89-23.51 43.81-22.08 43.72-20.65 43.72-19.38L43.72-19.38 43.72-12.57 54.25-12.57 54.25-8.54 43.72-8.54 43.72 0 34.03 0 34.03-17.87Q34.03-21.7 35.25-25 36.47-28.3 38.71-30.73 40.94-33.15 44.08-34.53 47.21-35.91 51.07-35.91L51.07-35.91Q53.68-35.91 55.97-35.17 58.25-34.42 60.13-33.12 62.01-31.81 63.49-30.02 64.96-28.22 65.95-26.1 66.94-23.97 67.45-21.61 67.97-19.24 67.92-16.82ZM78.71-24.12L78.71 0 74.21 0 74.21-35.16 80.51-35.16 101.87-11.01 101.87-35.16 106.34-35.16 106.34 0 100.04 0 78.71-24.12ZM150.99-17.63L150.99-17.63Q150.99-13.38 149.53-9.97 148.06-6.57 145.48-4.2 142.89-1.83 139.35-0.56 135.81 0.71 131.68 0.71L131.68 0.71Q127.56 0.71 124.02-0.56 120.48-1.83 117.89-4.2 115.3-6.57 113.84-9.97 112.37-13.38 112.37-17.63L112.37-17.63Q112.37-21.95 113.82-25.35 115.28-28.76 117.85-31.12 120.43-33.47 123.97-34.73 127.51-35.99 131.68-35.99L131.68-35.99Q135.86-35.99 139.4-34.73 142.94-33.47 145.51-31.12 148.09-28.76 149.54-25.35 150.99-21.95 150.99-17.63ZM141.13-17.63L141.13-17.63Q141.13-19.24 140.98-20.92 140.84-22.61 140.45-24.19 140.06-25.78 139.38-27.17 138.71-28.56 137.66-29.6 136.61-30.64 135.14-31.24 133.66-31.84 131.68-31.84L131.68-31.84Q129.68-31.84 128.19-31.24 126.7-30.64 125.65-29.61 124.6-28.59 123.94-27.2 123.28-25.81 122.91-24.23 122.53-22.66 122.38-20.96 122.23-19.26 122.23-17.63L122.23-17.63Q122.23-16.02 122.38-14.33 122.53-12.65 122.92-11.07 123.31-9.5 123.98-8.11 124.65-6.71 125.7-5.68 126.75-4.64 128.23-4.03 129.7-3.42 131.68-3.42L131.68-3.42Q133.61-3.42 135.05-4.04 136.49-4.66 137.54-5.73 138.59-6.79 139.29-8.19 139.98-9.59 140.39-11.17 140.79-12.74 140.96-14.4 141.13-16.06 141.13-17.63Z" opacity="1" transform="matrix(1,0,0,1,0,0)" fill="#2d3035" class="wordmark-text-0" data-fill-palette-color="primary" id="text-0"></path></svg></g></svg></g><g transform="matrix(1,0,0,1,0,86.92445663216111)"><svg viewBox="0 0 244.43135999999998 43.459556045644085" height="43.459556045644085" width="244.43135999999998"><g transform="matrix(1,0,0,1,0,0)"><svg width="244.43135999999998" viewBox="1.25 -36.84 210.63 37.45" height="43.459556045644085" data-palette-color="#4e5156"><path d="M25.56-33.54L25.56-25.61 22.61-25.61 21.9-30.2Q21.83-30.57 21.61-30.83 21.39-31.1 21.04-31.1L21.04-31.1 10.4-31.1 10.4-18.09 18.04-18.09Q18.38-18.09 18.65-18.42 18.92-18.75 18.95-18.99L18.95-18.99 19.41-22.51 21.9-22.51 21.9-11.25 19.41-11.25 18.95-14.75Q18.92-15.01 18.64-15.33 18.36-15.65 18.04-15.65L18.04-15.65 10.4-15.65 10.4-3.44Q10.4-3.08 10.66-2.73 10.91-2.39 11.45-2.34L11.45-2.34 14.79-2.15 14.79 0 1.66 0 1.66-2.15 4.3-2.34Q4.83-2.39 5.09-2.73 5.35-3.08 5.35-3.44L5.35-3.44 5.35-30.1Q5.35-30.47 5.09-30.82 4.83-31.18 4.3-31.2L4.3-31.2 1.25-31.4 1.25-33.54 25.56-33.54ZM47.95-23.95L47.95-18.99 46-18.99Q45.53-19.56 44.88-19.96 44.24-20.36 43.31-20.36L43.31-20.36Q42.11-20.36 40.86-19.53 39.6-18.7 38.3-17.26L38.3-17.26 38.3-3.2Q38.3-2.15 39.35-2.1L39.35-2.1 42.65-1.95 42.65 0 30.15 0 30.15-1.9 32.62-2.1Q33.06-2.15 33.36-2.44 33.67-2.73 33.67-3.2L33.67-3.2 33.67-20.56 30.05-20.56 30.05-22.19 36.25-24.1 38.3-24.1 38.3-19.65Q39.04-20.46 40.14-21.66 41.23-22.85 42.48-23.78 43.72-24.71 44.9-24.71L44.9-24.71Q45.68-24.71 46.58-24.46 47.48-24.22 47.95-23.95L47.95-23.95ZM75.8-12.01L75.8-12.01Q75.8-8.47 74.34-5.6 72.87-2.73 70.2-1.06 67.53 0.61 63.87 0.61L63.87 0.61Q60.23 0.61 57.57-1.05 54.91-2.71 53.46-5.57 52.02-8.42 52.02-12.01L52.02-12.01Q52.02-15.58 53.48-18.46 54.93-21.34 57.63-23.02 60.33-24.71 64.01-24.71L64.01-24.71Q67.75-24.71 70.38-23 73.02-21.29 74.41-18.41 75.8-15.53 75.8-12.01ZM70.6-12.06L70.6-12.06Q70.6-14.79 69.88-17.16 69.16-19.53 67.69-21 66.21-22.46 63.96-22.46L63.96-22.46Q61.64-22.46 60.17-21 58.69-19.53 57.98-17.16 57.27-14.79 57.27-12.06L57.27-12.06Q57.27-9.35 57.99-6.97 58.71-4.59 60.19-3.13 61.67-1.66 63.91-1.66L63.91-1.66Q66.21-1.66 67.69-3.13 69.16-4.59 69.88-6.96 70.6-9.33 70.6-12.06ZM106.71-1.95L106.71 0 95.68 0 95.68-1.95 97.78-2.1Q98.22-2.15 98.52-2.44 98.83-2.73 98.83-3.2L98.83-3.2 98.83-16.21Q98.83-18.58 97.73-19.81 96.63-21.04 94.02-21.04L94.02-21.04Q92.6-21.04 91.2-20.64 89.79-20.24 88.52-19.6L88.52-19.6 88.52-3.2Q88.52-2.17 89.57-2.1L89.57-2.1 91.67-1.95 91.67 0 80.37 0 80.37-1.95 82.81-2.1Q83.86-2.17 83.86-3.2L83.86-3.2 83.86-20.56 80.37-20.56 80.37-22.19 86.47-24.1 88.52-24.1 88.52-21.61Q90.62-22.8 92.83-23.75 95.04-24.71 96.77-24.71L96.77-24.71Q100.05-24.71 101.76-22.67 103.46-20.63 103.46-16.99L103.46-16.99 103.46-3.2Q103.46-2.73 103.77-2.44 104.07-2.15 104.51-2.1L104.51-2.1 106.71-1.95ZM126.22-3.05L126.22-3.05 126.22-1.05Q126.22-1.05 125.28-0.63 124.34-0.22 122.81 0.2 121.29 0.61 119.48 0.61L119.48 0.61Q116.67 0.61 115.39-0.72 114.11-2.05 114.11-5L114.11-5 114.11-21.61 110.91-21.61 110.91-23.24 114.33-24.85 116.57-30.15 118.77-30.15 118.77-24.1 125.83-24.1 125.83-21.61 118.77-21.61 118.77-7.64Q118.77-4.66 119.77-3.43 120.77-2.2 122.77-2.2L122.77-2.2Q124.24-2.2 125.23-2.62 126.22-3.05 126.22-3.05ZM151.22-5.54L151.22-2.49Q149.12-1.2 146.69-0.29 144.26 0.61 141.72 0.61L141.72 0.61Q138.69 0.61 136.04-0.74 133.39-2.1 131.76-4.86 130.12-7.62 130.12-11.79L130.12-11.79Q130.12-15.7 131.64-18.6 133.15-21.51 135.81-23.11 138.47-24.71 141.87-24.71L141.87-24.71Q146.53-24.71 148.87-21.81 151.22-18.92 151.22-14.45L151.22-14.45Q151.22-14.21 151.22-13.81 151.22-13.4 151.17-13.06L151.17-13.06 134.96-13.06Q134.96-11.16 135.36-9.27 135.76-7.37 136.71-5.83 137.67-4.3 139.28-3.37 140.89-2.44 143.31-2.44L143.31-2.44Q145.45-2.44 147.49-3.43 149.53-4.42 151.22-5.54L151.22-5.54ZM135.22-15.31L146.21-15.31 146.21-16.41Q146.21-18.87 145.03-20.56 143.84-22.24 141.35-22.24L141.35-22.24Q138.89-22.24 137.15-20.39 135.42-18.53 135.22-15.31L135.22-15.31ZM182.12-1.95L182.12 0 171.09 0 171.09-1.95 173.19-2.1Q173.63-2.15 173.93-2.44 174.24-2.73 174.24-3.2L174.24-3.2 174.24-16.21Q174.24-18.58 173.14-19.81 172.04-21.04 169.43-21.04L169.43-21.04Q168.01-21.04 166.61-20.64 165.2-20.24 163.93-19.6L163.93-19.6 163.93-3.2Q163.93-2.17 164.98-2.1L164.98-2.1 167.08-1.95 167.08 0 155.78 0 155.78-1.95 158.22-2.1Q159.27-2.17 159.27-3.2L159.27-3.2 159.27-20.56 155.78-20.56 155.78-22.19 161.88-24.1 163.93-24.1 163.93-21.61Q166.03-22.8 168.24-23.75 170.45-24.71 172.19-24.71L172.19-24.71Q175.46-24.71 177.17-22.67 178.88-20.63 178.88-16.99L178.88-16.99 178.88-3.2Q178.88-2.73 179.18-2.44 179.49-2.15 179.93-2.1L179.93-2.1 182.12-1.95ZM211.88-1.95L211.88 0 204.02 0 204.02-2.66Q202.31-1.34 200.38-0.37 198.46 0.61 196.28 0.61L196.28 0.61Q193.77 0.61 191.95-0.45 190.13-1.51 188.97-3.27 187.81-5.03 187.25-7.15 186.69-9.28 186.69-11.4L186.69-11.4Q186.69-14.79 188.08-17.83 189.47-20.87 192.3-22.79 195.14-24.71 199.43-24.71L199.43-24.71Q200.63-24.71 202.03-24.48 203.44-24.24 204.02-24.1L204.02-24.1 204.02-33.25 200.24-33.25 200.24-34.91 206.68-36.84 208.69-36.84 208.69-3.2Q208.69-2.17 209.73-2.1L209.73-2.1 211.88-1.95ZM204.02-4.54L204.02-4.54 204.02-21.56Q203.39-21.78 202.13-22.03 200.87-22.29 199.77-22.29L199.77-22.29Q196.06-22.29 193.84-19.54 191.62-16.8 191.62-12.26L191.62-12.26Q191.62-8.18 193.52-5.49 195.43-2.81 198.87-2.81L198.87-2.81Q200.38-2.81 201.71-3.38 203.05-3.96 204.02-4.54Z" opacity="1" transform="matrix(1,0,0,1,0,0)" fill="#4e5156" class="slogan-text-1" data-fill-palette-color="secondary" id="text-1"></path></svg></g></svg></g></svg></g></svg></g></svg></g></svg></g></svg></g><g><path d="M0 123.6c0-68.262 55.338-123.6 123.6-123.6 40.736 0 76.87 19.707 99.387 50.107l-3.975 0c-22.022-28.547-56.569-46.936-95.412-46.936-66.511 0-120.429 53.918-120.429 120.429 0 66.511 53.918 120.429 120.429 120.429 38.843 0 73.39-18.389 95.412-46.936h3.975c-22.517 30.4-58.651 50.107-99.387 50.107-68.262 0-123.6-55.338-123.6-123.6z" fill="#2d3035" stroke="transparent" data-fill-palette-color="tertiary"></path></g></svg></g><defs></defs></svg><rect width="395.52" height="247.2" fill="none" stroke="none" visibility="hidden"></rect></g></svg></g></svg>